<svg xmlns="http://www.w3.org/2000/svg" viewBox="0 0 52.13 52.13"><defs><style>.cls-1,.cls-2{fill:none;}.cls-1{stroke:#fff;stroke-miterlimit:10;}</style></defs><g id="레이어_2" data-name="레이어 2"><g id="아이콘"><path class="cls-1" d="M19.69,25.19h2a10.67,10.67,0,0,1-.67-3.72,10.81,10.81,0,0,1,6.59-9.95A8,8,0,0,0,16.58,13.6H13.81a7.06,7.06,0,0,0-.12,14.12A8.36,8.36,0,0,1,19.69,25.19Z"/><path class="cls-1" d="M35.33,22.18a9.5,9.5,0,0,1,4.47,5.2,8,8,0,0,1,.86.32,10.78,10.78,0,0,0-8.8-17,10.86,10.86,0,0,0-4.2.84"/><path class="cls-1" d="M27.66,11.52a10.81,10.81,0,0,0-6.59,10,10.67,10.67,0,0,0,.67,3.72H23a9.5,9.5,0,0,1,12.34-3"/><path class="cls-1" d="M13.81,27.72h-.12a8.4,8.4,0,0,0,6,14.29H37.56a7.65,7.65,0,0,0,7.82-7.47,7.46,7.46,0,0,0-4.72-6.84"/><path class="cls-1" d="M21.74,25.19h-2a8.36,8.36,0,0,0-6,2.53h.12"/><rect class="cls-2" width="52.13" height="52.13"/></g></g></svg>